<svg xmlns="http://www.w3.org/2000/svg" viewBox="0 0 267 267">
  <path fill="#040404" d="M157.553 26.188C155.774 30.84 153.776 35.267 151.096 39.477C147.538 45.07 145.618 49.682 144.553 56.188C144.37 56.887 144.187 57.585 143.998 58.305C142.489 64.282 142.371 70.12 142.365 76.251C142.365 77.539 142.365 77.539 142.363 78.852C142.006 82.838 142.006 82.838 143.553 86.188C149.171 86.539 154.119 85.568 159.553 84.188C159.628 83.652 159.703 83.116 159.78 82.563C160.749 76.784 162.4 71.417 164.428 65.938C164.672 65.265 164.917 64.592 165.169 63.899C167.551 57.632 171.165 52.565 175.303 47.313C175.917 46.532 176.53 45.751 177.162 44.946C177.621 44.366 178.08 43.786 178.553 43.188C178.883 43.848 179.213 44.508 179.553 45.188C178.619 47.021 177.681 48.853 176.729 50.676C172.13 60.499 170.09 71.675 167.553 82.188C168.37 81.751 169.188 81.314 170.03 80.864C173.24 79.337 176.351 78.192 179.719 77.097C186.847 74.769 193.133 72.571 198.553 67.188C199.178 66.577 199.803 65.966 200.448 65.336C205.452 60.066 209.396 54.157 213.316 48.065C214.373 46.425 215.46 44.805 216.553 43.188C216.883 43.188 217.213 43.188 217.553 43.188C216.657 55.144 208.44 68.862 200.139 77.25C193.629 82.128 185.751 84.23 178.065 86.555C177.332 86.778 176.599 87 175.844 87.23C174.424 87.653 172.998 88.062 171.568 88.453C169.412 89.043 169.412 89.043 166.553 90.188C165.299 93.951 165.446 97.46 165.49 101.376C165.497 102.5 165.497 102.5 165.504 103.647C165.516 105.494 165.534 107.341 165.553 109.188C177.156 108.588 187.51 104.159 197.444 98.325C199.553 97.188 199.553 97.188 201.553 97.188C201.553 96.528 201.553 95.868 201.553 95.188C202.881 93.954 202.881 93.954 204.803 92.438C216.875 82.164 228.383 68.187 233.553 53.188C234.212 51.518 234.877 49.851 235.553 48.188C236.213 48.188 236.873 48.188 237.553 48.188C237.501 51.71 237.406 55.23 237.303 58.751C237.289 59.741 237.275 60.732 237.26 61.752C236.882 73.124 231.641 78.545 224.242 86.67C218.62 92.938 218.62 92.938 216.365 100.876C217.44 103.497 217.44 103.497 220.616 104.876C233.569 108.933 248.107 108.665 261.553 109.188C256.174 114.748 249.793 115.412 242.241 115.626C235.798 115.616 229.77 114.561 223.491 113.188C209.975 110.247 198.674 110.173 185.553 115.188C184.788 115.472 184.022 115.757 183.234 116.05C163.561 123.39 147.997 132.057 135.432 149.366C132.534 153.281 129.81 155.777 125.553 158.188C124.893 158.188 124.233 158.188 123.553 158.188C123.553 158.848 123.553 159.508 123.553 160.188C121.573 160.518 119.593 160.848 117.553 161.188C117.611 161.987 117.669 162.786 117.729 163.61C118.046 171.333 117.014 176.709 113.549 183.629C112.408 186.56 112.589 187.289 113.553 190.188C114.197 191.485 114.889 192.758 115.619 194.008C116.022 194.708 116.425 195.408 116.84 196.129C117.261 196.85 117.682 197.571 118.115 198.313C118.954 199.751 119.789 201.191 120.619 202.633C120.99 203.268 121.361 203.902 121.743 204.556C122.553 206.188 122.553 206.188 122.553 208.188C123.213 208.188 123.873 208.188 124.553 208.188C125.639 209.77 126.645 211.407 127.615 213.063C133.032 221.76 138.269 229.573 148.553 232.188C149.437 232.461 149.437 232.461 150.338 232.739C153.45 233.37 156.506 233.267 159.678 233.313C167.235 233.592 171.986 236.172 177.553 241.188C174.661 242.014 172.666 242.188 169.553 242.188C170.543 242.518 171.533 242.848 172.553 243.188C175.266 245.901 176.454 247.48 176.991 251.313C176.502 254.522 175.876 255.105 173.553 257.188C172.999 256.767 172.444 256.345 171.873 255.911C170.787 255.089 170.787 255.089 169.678 254.251C168.959 253.705 168.239 253.16 167.498 252.598C165.609 251.148 165.609 251.148 163.553 250.188C164.213 250.91 164.873 251.632 165.553 252.376C168.892 257.389 168.149 263.436 167.553 269.188C166.788 272.371 165.791 275.144 164.553 278.188C163.893 278.188 163.233 278.188 162.553 278.188C162.553 275.218 162.553 272.248 162.553 269.188C161.893 269.188 161.233 269.188 160.553 269.188C160.471 270.446 160.388 271.704 160.303 273C159.401 281.182 155.869 288.727 152.553 296.188C151.727 293.296 151.553 291.301 151.553 288.188C151.238 288.961 150.924 289.735 150.6 290.532C146.682 300.067 146.682 300.067 144.553 304.063C141.567 309.814 139.649 316.072 137.553 322.188C135.574 318.552 135.028 315.304 134.553 311.188C132.947 315.464 132.269 319.121 132.139 323.68C132.1 324.879 132.062 326.078 132.022 327.313C131.991 328.55 131.96 329.788 131.928 331.063C131.87 332.954 131.87 332.954 131.811 334.883C131.717 337.985 131.631 341.086 131.553 344.188C127.152 343.472 124.869 342.228 121.553 339.188C121.223 338.528 120.893 337.868 120.553 337.188C120.553 339.828 120.553 342.468 120.553 345.188C114.591 339.865 112.204 334.707 111.631 326.911C111.605 326.343 111.58 325.774 111.553 325.188C110.47 326.426 110.47 326.426 109.365 327.688C106.553 330.188 106.553 330.188 103.74 330.501C103.019 330.397 102.297 330.294 101.553 330.188C101.883 328.538 102.213 326.888 102.553 325.188C101.831 325.931 101.109 326.673 100.365 327.438C93.462 334.188 93.462 334.188 89.553 334.188C89.553 332.538 89.553 330.888 89.553 329.188C88.893 329.188 88.233 329.188 87.553 329.188C87.553 330.508 87.553 331.828 87.553 333.188C86.893 333.188 86.233 333.188 85.553 333.188C83.459 327.652 82.525 321.999 81.553 316.188C81.223 319.488 80.893 322.788 80.553 326.188C79.893 326.188 79.233 326.188 78.553 326.188C75.258 320.291 72.064 314.465 69.553 308.188C69.223 310.498 68.893 312.808 68.553 315.188C67.893 314.858 67.233 314.528 66.553 314.188C65.99 312.368 65.99 312.368 65.553 310.063C64.998 307.294 64.4 304.702 63.553 302C62.018 296.149 61.334 290.181 60.553 284.188C59.893 284.848 59.233 285.508 58.553 286.188C58.223 282.888 57.893 279.588 57.553 276.188C56.769 277.013 55.985 277.838 55.178 278.688C52.553 281.188 52.553 281.188 50.553 281.188C50.553 272.938 50.553 264.688 50.553 256.188C49.893 256.188 49.233 256.188 48.553 256.188C48.285 256.807 48.017 257.425 47.74 258.063C46.553 260.188 46.553 260.188 43.553 262.188C43.223 258.888 42.893 255.588 42.553 252.188C41.893 252.848 41.233 253.508 40.553 254.188C40.59 253.547 40.626 252.907 40.664 252.248C40.81 249.333 40.901 246.418 40.991 243.501C41.049 242.494 41.108 241.486 41.168 240.448C41.417 235.089 41.417 235.089 39.175 230.436C33.83 226.429 28.075 225.106 21.487 224.657C12.843 224.037 7.054 222.266 0.553 216.188C-0.195 215.514 -0.942 214.84 -1.713 214.145C-3.447 212.188 -3.447 212.188 -3.384 209.251C-1.514 203.139 1.186 200.183 6.502 196.79C11.111 194.37 15.937 192.617 20.808 190.801C28.333 187.972 35.275 184.468 41.928 179.938C44.42 178.277 46.757 177.226 49.553 176.188C49.883 175.858 50.213 175.528 50.553 175.188"></path>
</svg>
