<?xml version="1.0" encoding="UTF-8"?>
<svg version="1.1" xmlns="http://www.w3.org/2000/svg" width="400" height="400">
<path d="M0 0 C132 0 264 0 400 0 C400 132 400 264 400 400 C268 400 136 400 0 400 C0 268 0 136 0 0 Z " fill="#FEFEFE" transform="translate(0,0)"/>
<path d="M0 0 C-1.77871081 4.65201288 -3.7770134 9.07863231 -6.45703125 13.2890625 C-10.01510573 18.88155912 -11.93454866 23.49394608 -13 30 C-13.18304688 30.69867188 -13.36609375 31.39734375 -13.5546875 32.1171875 C-15.06430013 38.09359916 -15.18181456 43.9324571 -15.1875 50.0625 C-15.18830566 50.92085449 -15.18911133 51.77920898 -15.18994141 52.66357422 C-15.54667382 56.65007457 -15.54667382 56.65007457 -14 60 C-8.38223003 60.35111062 -3.43421134 59.38011717 2 58 C2.07476562 57.46375 2.14953125 56.9275 2.2265625 56.375 C3.19603866 50.59616171 4.84701138 45.22872814 6.875 39.75 C7.11943848 39.07710937 7.36387695 38.40421875 7.61572266 37.7109375 C9.9983336 31.444005 13.61239199 26.3765794 17.75 21.125 C18.36359375 20.34382813 18.9771875 19.56265625 19.609375 18.7578125 C20.06828125 18.17773438 20.5271875 17.59765625 21 17 C21.33 17.66 21.66 18.32 22 19 C21.06607606 20.8332581 20.12848875 22.66471398 19.17578125 24.48828125 C14.57736461 34.31147693 12.53717356 45.48692447 10 56 C10.81726563 55.56300781 11.63453125 55.12601563 12.4765625 54.67578125 C15.68739058 53.14868009 18.79754823 52.00394911 22.16625977 50.90893555 C29.29353633 48.58097023 35.57954761 46.38254713 41 41 C41.62519531 40.38898438 42.25039063 39.77796875 42.89453125 39.1484375 C47.89886944 33.87759609 51.84338602 27.96912576 55.76318359 21.87719727 C56.82044768 20.23728645 57.90737866 18.61656842 59 17 C59.33 17 59.66 17 60 17 C59.1036801 28.95626724 50.88715791 42.67389832 42.5859375 51.0625 C36.07619002 55.93989389 28.19816208 58.0421835 20.51171875 60.3671875 C19.77896729 60.58979248 19.04621582 60.81239746 18.29125977 61.04174805 C16.87057681 61.46524702 15.44525397 61.87354321 14.01538086 62.26489258 C11.85870257 62.85502089 11.85870257 62.85502089 9 64 C7.74566542 67.76300374 7.89304578 71.27210909 7.9375 75.1875 C7.94426758 76.31188477 7.94426758 76.31188477 7.95117188 77.45898438 C7.96293646 79.30602383 7.98087135 81.15302213 8 83 C19.60331987 82.39982828 29.95688822 77.97058488 39.890625 72.13671875 C42 71 42 71 44 71 C44 70.34 44 69.68 44 69 C45.328125 67.765625 45.328125 67.765625 47.25 66.25 C59.32178631 55.97613931 70.82984953 41.99855533 76 27 C76.65940352 25.3304464 77.32422491 23.66299436 78 22 C78.66 22 79.32 22 80 22 C79.94773538 25.52200476 79.85257127 29.04162954 79.75 32.5625 C79.73582031 33.55314453 79.72164062 34.54378906 79.70703125 35.56445312 C79.32925109 46.93563597 74.08762721 52.35682956 66.68945312 60.48242188 C61.06669613 66.75008792 61.06669613 66.75008792 58.8125 74.6875 C59.88674586 77.30932256 59.88674586 77.30932256 63.0625 78.6875 C76.01561115 82.7453773 90.55444351 82.47650497 104 83 C98.62097764 88.55992485 92.23971726 89.22390194 84.6875 89.4375 C78.24492485 89.42750317 72.21662531 88.37337182 65.9375 87 C52.42228342 84.05872497 41.12054795 83.98497257 28 89 C27.23461914 89.28439941 26.46923828 89.56879883 25.68066406 89.86181641 C6.00830468 97.20173629 -9.55630685 105.86912677 -22.12133789 123.17797852 C-25.01865093 127.09310124 -27.74263489 129.58927443 -32 132 C-32.66 132 -33.32 132 -34 132 C-34 132.66 -34 133.32 -34 134 C-35.98 134.33 -37.96 134.66 -40 135 C-39.94199219 135.79921875 -39.88398438 136.5984375 -39.82421875 137.421875 C-39.50694052 145.14533374 -40.5389661 150.52091604 -44.00390625 157.44140625 C-45.14497118 160.37237695 -44.9642379 161.10081718 -44 164 C-43.35574506 165.29654423 -42.66374154 166.57012228 -41.93359375 167.8203125 C-41.53076172 168.52027344 -41.12792969 169.22023437 -40.71289062 169.94140625 C-40.29201172 170.66199219 -39.87113281 171.38257813 -39.4375 172.125 C-38.59897157 173.56284087 -37.76414382 175.00284833 -36.93359375 176.4453125 C-36.56290771 177.07969238 -36.19222168 177.71407227 -35.81030273 178.36767578 C-35 180 -35 180 -35 182 C-34.34 182 -33.68 182 -33 182 C-31.91408387 183.58224899 -30.9075854 185.21920412 -29.9375 186.875 C-24.5212458 195.57247043 -19.28400551 203.38542233 -9 206 C-8.11634766 206.27263672 -8.11634766 206.27263672 -7.21484375 206.55078125 C-4.10346063 207.18183779 -1.04714011 207.07940456 2.125 207.125 C9.6822667 207.40421617 14.4334273 209.98353566 20 215 C17.10765685 215.82638376 15.11257569 216 12 216 C12.99 216.33 13.98 216.66 15 217 C17.71255676 219.71255676 18.90088229 221.29201639 19.4375 225.125 C18.94910155 228.33447554 18.32319452 228.91713595 16 231 C15.44570312 230.57847656 14.89140625 230.15695312 14.3203125 229.72265625 C13.23363281 228.90087891 13.23363281 228.90087891 12.125 228.0625 C11.40570313 227.51722656 10.68640625 226.97195313 9.9453125 226.41015625 C8.05642921 224.96035376 8.05642921 224.96035376 6 224 C6.66 224.721875 7.32 225.44375 8 226.1875 C11.33855619 231.20127478 10.5957562 237.2478712 10 243 C9.23487632 246.18291452 8.23830108 248.95584318 7 252 C6.34 252 5.68 252 5 252 C5 249.03 5 246.06 5 243 C4.34 243 3.68 243 3 243 C2.9175 244.258125 2.835 245.51625 2.75 246.8125 C1.84814715 254.99359371 -1.6838714 262.53871066 -5 270 C-5.82638376 267.10765685 -6 265.11257569 -6 262 C-6.31453125 262.7734375 -6.6290625 263.546875 -6.953125 264.34375 C-10.87089764 273.87857016 -10.87089764 273.87857016 -13 277.875 C-15.98564486 283.62603722 -17.90413962 289.88421068 -20 296 C-21.9789756 292.36383344 -22.5251065 289.11574371 -23 285 C-24.60579193 289.27647745 -25.28380287 292.9331005 -25.4140625 297.4921875 C-25.45273438 298.69101562 -25.49140625 299.88984375 -25.53125 301.125 C-25.5621875 302.3625 -25.593125 303.6 -25.625 304.875 C-25.68300781 306.76605469 -25.68300781 306.76605469 -25.7421875 308.6953125 C-25.83616989 311.79673137 -25.92183411 314.89814886 -26 318 C-30.40069339 317.28377977 -32.68389372 316.03976409 -36 313 C-36.33 312.34 -36.66 311.68 -37 311 C-37 313.64 -37 316.28 -37 319 C-42.96177946 313.67698263 -45.34918293 308.51907779 -45.921875 300.72265625 C-45.94765625 300.15417969 -45.9734375 299.58570313 -46 299 C-47.0828125 300.2375 -47.0828125 300.2375 -48.1875 301.5 C-51 304 -51 304 -53.8125 304.3125 C-54.534375 304.209375 -55.25625 304.10625 -56 304 C-55.67 302.35 -55.34 300.7 -55 299 C-55.721875 299.7425 -56.44375 300.485 -57.1875 301.25 C-64.09090909 308 -64.09090909 308 -68 308 C-68 306.35 -68 304.7 -68 303 C-68.66 303 -69.32 303 -70 303 C-70 304.32 -70 305.64 -70 307 C-70.66 307 -71.32 307 -72 307 C-74.09448302 301.46458058 -75.02782755 295.81235021 -76 290 C-76.33 293.3 -76.66 296.6 -77 300 C-77.66 300 -78.32 300 -79 300 C-82.29504282 294.10304635 -85.48928149 288.27679627 -88 282 C-88.33 284.31 -88.66 286.62 -89 289 C-89.66 288.67 -90.32 288.34 -91 288 C-91.5625 286.1796875 -91.5625 286.1796875 -92 283.875 C-92.55463503 281.10615792 -93.15259512 278.51360307 -94 275.8125 C-95.53489371 269.96071775 -96.21870932 263.99266577 -97 258 C-97.66 258.66 -98.32 259.32 -99 260 C-99.33 256.7 -99.66 253.4 -100 250 C-100.78375 250.825 -101.5675 251.65 -102.375 252.5 C-105 255 -105 255 -107 255 C-107 246.75 -107 238.5 -107 230 C-107.66 230 -108.32 230 -109 230 C-109.268125 230.61875 -109.53625 231.2375 -109.8125 231.875 C-111 234 -111 234 -114 236 C-114.33 232.7 -114.66 229.4 -115 226 C-115.66 226.66 -116.32 227.32 -117 228 C-116.96334229 227.35973877 -116.92668457 226.71947754 -116.88891602 226.05981445 C-116.74295418 223.14453695 -116.65224188 220.23002695 -116.5625 217.3125 C-116.50384766 216.30509766 -116.44519531 215.29769531 -116.38476562 214.25976562 C-116.13555739 208.90102259 -116.13555739 208.90102259 -118.37841797 204.24755859 C-123.72339791 200.24139829 -129.47762261 198.9184409 -136.06567383 198.46923828 C-144.7104623 197.84892374 -150.4989451 196.07790932 -157 190 C-157.74765625 189.32582031 -158.4953125 188.65164062 -159.265625 187.95703125 C-161 186 -161 186 -160.9375 183.0625 C-159.06652302 176.95064187 -156.36672777 173.99471985 -151.05078125 170.6015625 C-146.44242366 168.18232228 -141.61594627 166.42877112 -136.74487305 164.61254883 C-129.22015379 161.78383062 -122.27777859 158.27990703 -115.625 153.75 C-113.13257965 152.08838644 -110.79573952 151.03841753 -108 150 C-107.67 149.67 -107.34 149.34 -107 149 C-105.31391034 148.92794489 -103.62499341 148.91613932 -101.9375 148.9375 C-101.01839844 148.94652344 -100.09929687 148.95554688 -99.15234375 148.96484375 C-98.44207031 148.97644531 -97.73179687 148.98804688 -97 149 C-96.85691406 148.41734375 -96.71382813 147.8346875 -96.56640625 147.234375 C-95.78096829 144.13595766 -94.88585963 141.07098004 -94 138 C-95.2375 137.6596875 -95.2375 137.6596875 -96.5 137.3125 C-107.80482913 133.07318908 -116.02615896 124.32268207 -121.375 113.625 C-124.44567279 106.13461407 -123.5077838 98.80401509 -120.98046875 91.26953125 C-119.45720278 87.74356501 -117.82858374 85.62654205 -115 83 C-112.1875 82.125 -112.1875 82.125 -110 82 C-112 86 -112 86 -113.046875 87.80859375 C-114.88158032 92.02691212 -114.4949436 96.50051275 -114 101 C-112.79165315 103.99459873 -111.94643717 105.57088838 -110 108 C-109.36707031 108.79277344 -108.73414063 109.58554688 -108.08203125 110.40234375 C-102.6411686 116.80619094 -96.56445368 122.21777316 -89 126 C-89.495 125.0409375 -89.495 125.0409375 -90 124.0625 C-91.52890022 119.38024307 -92.02848997 114.30619097 -89.984375 109.72265625 C-89.65953125 109.15417969 -89.3346875 108.58570313 -89 108 C-86.71358522 111.42962218 -85.06203761 114.99608899 -83.31640625 118.72265625 C-82.06404305 121.27707565 -82.06404305 121.27707565 -79 123 C-72.69602388 123.7608247 -69.29831837 122.48211436 -63.98046875 119.09375 C-62 118 -62 118 -59 118 C-59.66 118.66 -60.32 119.32 -61 120 C-60.95875 120.94875 -60.9175 121.8975 -60.875 122.875 C-61 126 -61 126 -63.0078125 128.1953125 C-63.99394531 129.08863281 -63.99394531 129.08863281 -65 130 C-55.4447465 130.69352646 -48.55349305 129.31527577 -40 125 C-40.15339844 124.24332031 -40.30679688 123.48664063 -40.46484375 122.70703125 C-41.03692769 119.81320521 -41.52605914 116.91135098 -42 114 C-41.34 114.33 -40.68 114.66 -40 115 C-39.505 113.515 -39.505 113.515 -39 112 C-37.1875 111.125 -37.1875 111.125 -35 111 C-33 112.5 -33 112.5 -31 114 C-26.21584008 113.574081 -24.05864194 110.19704767 -21.09765625 106.765625 C-18.11988845 102.83962947 -15.77285385 98.64431612 -13.4453125 94.30859375 C-12.72988281 93.16583984 -12.72988281 93.16583984 -12 92 C-11.34 92 -10.68 92 -10 92 C-9.87310791 91.44280273 -9.74621582 90.88560547 -9.61547852 90.31152344 C-8.9471643 87.80156748 -8.08375703 85.4402564 -7.15234375 83.015625 C-6.79462891 82.08105469 -6.43691406 81.14648438 -6.06835938 80.18359375 C-5.69517578 79.21550781 -5.32199219 78.24742188 -4.9375 77.25 C-4.37192383 75.77466797 -4.37192383 75.77466797 -3.79492188 74.26953125 C-2.86533893 71.84555546 -1.93362785 69.42242008 -1 67 C-2.58172308 67.60339035 -4.16060099 68.21424163 -5.73828125 68.828125 C-6.61782471 69.1674707 -7.49736816 69.50681641 -8.40356445 69.85644531 C-18.83382194 74.45027005 -25.498477 84.04552144 -32 93 C-32.99 92.01 -33.98 91.02 -35 90 C-37.33075929 90.95865509 -37.33075929 90.95865509 -39 94 C-39.33 93.01 -39.66 92.02 -40 91 C-38.99609375 89.34375 -38.99609375 89.34375 -37.4375 87.5 C-29.92725276 77.97574351 -26.92398857 69.08378163 -25.25 57.125 C-25.05535156 55.85269531 -24.86070312 54.58039063 -24.66015625 53.26953125 C-23.90320823 48.29602716 -23.18938544 43.31665885 -22.47314453 38.3371582 C-22.30411621 37.19335693 -22.13508789 36.04955566 -21.9609375 34.87109375 C-21.81446777 33.85974365 -21.66799805 32.84839355 -21.51708984 31.80639648 C-19.36133613 20.10649614 -11.93172142 9.63157919 -4 1 C-2 0 -2 0 0 0 Z " fill="#040404" transform="translate(228,40)"/>
<path d="M0 0 C-4.93260939 17.22676461 -4.93260939 17.22676461 -9 25 C-9.66 25 -10.32 25 -11 25 C-11.27585938 25.73734375 -11.55171875 26.4746875 -11.8359375 27.234375 C-14.47531677 33.505115 -18.7588237 38.90201289 -23.0625 44.125 C-23.69285156 44.89070313 -24.32320312 45.65640625 -24.97265625 46.4453125 C-27 48 -27 48 -29.609375 47.80859375 C-31.8718165 47.04335618 -33.88273097 46.09513915 -36 45 C-36.66 45 -37.32 45 -38 45 C-38.2165625 45.928125 -38.2165625 45.928125 -38.4375 46.875 C-39 49 -39 49 -40 51 C-39.34 51.99 -38.68 52.98 -38 54 C-38.05078125 56.51171875 -38.05078125 56.51171875 -39 59 C-46.81752363 64.54482849 -55.79369027 64.61284606 -65 64 C-64.34 63.01 -63.68 62.02 -63 61 C-62.34 61 -61.68 61 -61 61 C-61.0825 59.80375 -61.165 58.6075 -61.25 57.375 C-61.24203508 52.85888933 -59.89605715 50.52223167 -57 47 C-56.0925 46.21625 -55.185 45.4325 -54.25 44.625 C-51.77611913 41.73880566 -51.33956255 40.12455156 -51.55859375 36.3515625 C-52.08734324 33.53468471 -53.01015567 31.0017545 -54 28.3125 C-56.86739845 20.30005326 -57.62437366 11.8721396 -54 4 C-53.67 4 -53.34 4 -53 4 C-52.89042969 4.83402344 -52.78085938 5.66804688 -52.66796875 6.52734375 C-51.34125692 16.53104415 -51.34125692 16.53104415 -48 26 C-47.34 26.33 -46.68 26.66 -46 27 C-46.020625 26.05125 -46.04125 25.1025 -46.0625 24.125 C-46 21 -46 21 -45 19 C-44.34 19 -43.68 19 -43 19 C-43 21.31 -43 23.62 -43 26 C-39.51329166 24.8905928 -36.22515763 23.73662334 -33 22 C-32.34 22.66 -31.68 23.32 -31 24 C-30.443125 23.28714844 -29.88625 22.57429688 -29.3125 21.83984375 C-11.91117093 0 -11.91117093 0 0 0 Z " fill="#0B0B0B" transform="translate(227,107)"/>
<path d="M0 0 C-1.77871081 4.65201288 -3.7770134 9.07863231 -6.45703125 13.2890625 C-10.01510573 18.88155912 -11.93454866 23.49394608 -13 30 C-13.18304688 30.69867188 -13.36609375 31.39734375 -13.5546875 32.1171875 C-15.06430013 38.09359916 -15.18181456 43.9324571 -15.1875 50.0625 C-15.1887085 51.35003174 -15.1887085 51.35003174 -15.18994141 52.66357422 C-15.54667382 56.65007457 -15.54667382 56.65007457 -14 60 C-8.54074888 60.3412032 -3.19544228 59.80614088 2 58 C2.495 57.01 2.495 57.01 3 56 C3.68707555 58.49064888 4 60.37886292 4 63 C3.401875 63.268125 2.80375 63.53625 2.1875 63.8125 C-0.0087638 64.85697695 -0.0087638 64.85697695 -1.37109375 66.45703125 C-3.23706565 68.22455859 -4.86743546 68.93363709 -7.25 69.875 C-18.45854244 74.69938882 -24.97261496 83.32125724 -32 93 C-32.99 92.01 -33.98 91.02 -35 90 C-37.33075929 90.95865509 -37.33075929 90.95865509 -39 94 C-39.33 93.01 -39.66 92.02 -40 91 C-38.99609375 89.34375 -38.99609375 89.34375 -37.4375 87.5 C-29.92725276 77.97574351 -26.92398857 69.08378163 -25.25 57.125 C-24.95802734 55.21654297 -24.95802734 55.21654297 -24.66015625 53.26953125 C-23.90320823 48.29602716 -23.18938544 43.31665885 -22.47314453 38.3371582 C-22.30411621 37.19335693 -22.13508789 36.04955566 -21.9609375 34.87109375 C-21.81446777 33.85974365 -21.66799805 32.84839355 -21.51708984 31.80639648 C-19.36133613 20.10649614 -11.93172142 9.63157919 -4 1 C-2 0 -2 0 0 0 Z " fill="#0C0C0C" transform="translate(228,40)"/>
<path d="M0 0 C-4.93260939 17.22676461 -4.93260939 17.22676461 -9 25 C-9.66 25 -10.32 25 -11 25 C-11.27585938 25.73734375 -11.55171875 26.4746875 -11.8359375 27.234375 C-14.47531677 33.505115 -18.7588237 38.90201289 -23.0625 44.125 C-23.69285156 44.89070313 -24.32320312 45.65640625 -24.97265625 46.4453125 C-27 48 -27 48 -29.50390625 47.98046875 C-32.43768658 46.82807616 -33.82065202 45.56366644 -35.875 43.1875 C-36.49117187 42.50042969 -37.10734375 41.81335938 -37.7421875 41.10546875 C-39 39 -39 39 -38.91796875 37.08984375 C-32.86417036 23.30779209 -20.99727406 9.62883478 -8 2 C-2.8 0 -2.8 0 0 0 Z " fill="#F6F6F6" transform="translate(227,107)"/>
<path d="M0 0 C0.53625 0.26554687 1.0725 0.53109375 1.625 0.8046875 C15.28791959 6.96199008 31.26593761 6.42633773 46 7 C40.62097764 12.55992485 34.23971726 13.22390194 26.6875 13.4375 C19.32615595 13.41810716 12.35735102 12.06894526 5.18725586 10.50268555 C-1.19510179 9.10952515 -7.46271409 8.26574333 -14 8 C-14 7.67 -14 7.34 -14 7 C-13.32453125 6.99742188 -12.6490625 6.99484375 -11.953125 6.9921875 C-6.79458957 6.94928295 -6.79458957 6.94928295 -2.4453125 4.59765625 C-1.22165792 2.78133547 -1.22165792 2.78133547 0 0 Z " fill="#171717" transform="translate(286,116)"/>
<path d="M0 0 C0.87144869 1.5529276 1.72153657 3.11785436 2.5625 4.6875 C3.03816406 5.55761719 3.51382813 6.42773438 4.00390625 7.32421875 C5.18204978 10.48903569 5.29879791 11.88288502 4 15 C-3.81752363 20.54482849 -12.79369027 20.61284606 -22 20 C-21.01 18.515 -21.01 18.515 -20 17 C-19.34 17 -18.68 17 -18 17 C-18 16.34 -18 15.68 -18 15 C-16.53125 13.5546875 -16.53125 13.5546875 -14.5 11.875 C-10.6500766 8.62106119 -7.13935665 5.15227282 -3.6640625 1.50390625 C-2 0 -2 0 0 0 Z " fill="#F2F2F2" transform="translate(184,151)"/>
<path d="M0 0 C-1.77871081 4.65201288 -3.7770134 9.07863231 -6.45703125 13.2890625 C-10.01538152 18.88199261 -11.94252118 23.44363133 -13 30 C-13.75929472 27.01386614 -14.4118332 24.02485781 -15 21 C-15.66 21 -16.32 21 -17 21 C-14.74643675 14.75249793 -7.50749794 0 0 0 Z " fill="#121212" transform="translate(228,40)"/>
<path d="M0 0 C0.33 0 0.66 0 1 0 C1.12117187 0.83402344 1.24234375 1.66804688 1.3671875 2.52734375 C1.53476563 3.65269531 1.70234375 4.77804688 1.875 5.9375 C2.0503125 7.12214844 2.225625 8.30679688 2.40625 9.52734375 C2.90412861 12.43927853 3.56905584 15.16480359 4.375 18 C4.890625 20.12109375 4.890625 20.12109375 5 22 C3.125 25.0625 3.125 25.0625 1 27 C-2.20646774 19.11743347 -3.89284399 10.36668411 -0.98046875 2.109375 C-0.65691406 1.41328125 -0.33335937 0.7171875 0 0 Z " fill="#1C1C1C" transform="translate(173,111)"/>
<path d="M0 0 C0.71484375 1.703125 0.71484375 1.703125 1 4 C-0.43359375 6.359375 -0.43359375 6.359375 -2.4375 8.75 C-3.42556641 9.94882813 -3.42556641 9.94882813 -4.43359375 11.171875 C-4.95050781 11.77515625 -5.46742188 12.3784375 -6 13 C-6.99 12.01 -7.98 11.02 -9 10 C-11.33075929 10.95865509 -11.33075929 10.95865509 -13 14 C-13.33 13.01 -13.66 12.02 -14 11 C-12.78515625 8.95703125 -12.78515625 8.95703125 -11.0625 6.8125 C-10.49660156 6.09707031 -9.93070313 5.38164063 -9.34765625 4.64453125 C-8.90292969 4.10183594 -8.45820313 3.55914062 -8 3 C-6.68 3.66 -5.36 4.32 -4 5 C-3.34 3.68 -2.68 2.36 -2 1 C-1.67 1.33 -1.34 1.66 -1 2 C-0.67 1.34 -0.34 0.68 0 0 Z " fill="#141414" transform="translate(202,120)"/>
<path d="M0 0 C-0.66 1.98 -1.32 3.96 -2 6 C-5.3131396 7.04127245 -6.60198308 7.18574123 -9.8125 5.6875 C-10.534375 5.130625 -11.25625 4.57375 -12 4 C-12 3.34 -12 2.68 -12 2 C-10.7625 1.67 -9.525 1.34 -8.25 1 C-7.55390625 0.814375 -6.8578125 0.62875 -6.140625 0.4375 C-4 0 -4 0 0 0 Z " fill="#C9C9C9" transform="translate(173,179)"/>
<path d="M0 0 C0.33 0 0.66 0 1 0 C1.02705729 1.77074917 1.04642195 3.54161711 1.0625 5.3125 C1.07410156 6.29863281 1.08570313 7.28476562 1.09765625 8.30078125 C1 11 1 11 0 14 C-0.66 14 -1.32 14 -2 14 C-2.33 14.66 -2.66 15.32 -3 16 C-3.99 16 -4.98 16 -6 16 C-4.27933894 10.55123997 -2.15294651 5.28830549 0 0 Z " fill="#C3C3C3" transform="translate(222,300)"/>
<path d="M0 0 C-1.44950455 3.7910119 -3.15172566 7.3874638 -5 11 C-5.66 10.34 -6.32 9.68 -7 9 C-8.65 10.32 -10.3 11.64 -12 13 C-10.51082643 8.08572721 -7.55813338 4.59680874 -4 1 C-2 0 -2 0 0 0 Z " fill="#333333" transform="translate(228,40)"/>
<path d="M0 0 C0.66 0 1.32 0 2 0 C1.67 7.26 1.34 14.52 1 22 C0.67 22 0.34 22 0 22 C-0.33 17.71 -0.66 13.42 -1 9 C-1.99 9.495 -1.99 9.495 -3 10 C-2.69201674 8.51988629 -2.378482 7.04092675 -2.0625 5.5625 C-1.88847656 4.73878906 -1.71445312 3.91507812 -1.53515625 3.06640625 C-1 1 -1 1 0 0 Z " fill="#575757" transform="translate(306,62)"/>
<path d="M0 0 C0.33 0 0.66 0 1 0 C0.50269348 4.97306516 -0.55302334 8.63799813 -3 13 C-4.32 12.67 -5.64 12.34 -7 12 C-5.61964507 9.14940657 -4.10703513 6.44119096 -2.4375 3.75 C-2.00308594 3.04359375 -1.56867188 2.3371875 -1.12109375 1.609375 C-0.75113281 1.07828125 -0.38117188 0.5471875 0 0 Z " fill="#343434" transform="translate(287,57)"/>
<path d="M0 0 C0 0.99 0 1.98 0 3 C-0.61875 3.2475 -1.2375 3.495 -1.875 3.75 C-4.44249816 5.26029304 -4.71815729 6.36091208 -6 9 C-8.8107941 12.10666717 -11.21916637 14.24633674 -15 16 C-10.74015016 9.71880965 -5.81328353 4.85732135 0 0 Z " fill="#D4D4D4" transform="translate(223,144)"/>
<path d="M0 0 C0.33 0.66 0.66 1.32 1 2 C2.65 2 4.3 2 6 2 C6 5.3 6 8.6 6 12 C0.72727273 6.90909091 0.72727273 6.90909091 -1 4 C-0.6875 1.75 -0.6875 1.75 0 0 Z " fill="#191919" transform="translate(185,347)"/>
<path d="M0 0 C0.66 0.33 1.32 0.66 2 1 C2.33608711 9.05364285 2.0517291 15.49783264 -1 23 C-1.66 23 -2.32 23 -3 23 C-3.1875 19.6875 -3.1875 19.6875 -3 16 C-2.505 15.566875 -2.01 15.13375 -1.5 14.6875 C0.82317625 12.07392672 0.28873455 9.72072977 0.1875 6.3125 C0.14689453 4.54326172 0.14689453 4.54326172 0.10546875 2.73828125 C0.05326172 1.38283203 0.05326172 1.38283203 0 0 Z " fill="#686868" transform="translate(236,269)"/>
<path d="M0 0 C0.33 0.66 0.66 1.32 1 2 C0.29296875 3.83984375 0.29296875 3.83984375 -0.8125 5.9375 C-1.34810547 6.97197266 -1.34810547 6.97197266 -1.89453125 8.02734375 C-2.84989011 9.73213606 -3.91598646 11.3739797 -5 13 C-6.32 13 -7.64 13 -9 13 C-7.50923566 9.7173068 -5.61379679 7.06922559 -3.375 4.25 C-2.74335938 3.45078125 -2.11171875 2.6515625 -1.4609375 1.828125 C-0.97882813 1.22484375 -0.49671875 0.6215625 0 0 Z " fill="#3D3D3D" transform="translate(249,57)"/>
<path d="M0 0 C0.33 0 0.66 0 1 0 C1.33 3.3 1.66 6.6 2 10 C2.66 9.67 3.32 9.34 4 9 C4 10.98 4 12.96 4 15 C3.01 15.33 2.02 15.66 1 16 C0.34 15.67 -0.32 15.34 -1 15 C-1.02693575 12.87506859 -1.04636628 10.75004088 -1.0625 8.625 C-1.07410156 7.44164062 -1.08570312 6.25828125 -1.09765625 5.0390625 C-1 2 -1 2 0 0 Z " fill="#BEBEBE" transform="translate(128,288)"/>
<path d="M0 0 C0.66 0.33 1.32 0.66 2 1 C-2.62 5.62 -7.24 10.24 -12 15 C-12.66 14.67 -13.32 14.34 -14 14 C-10.12814498 9.03918575 -5.79125711 5.06361292 -1 1 C-0.67 0.67 -0.34 0.34 0 0 Z " fill="#D3D3D3" transform="translate(214,112)"/>
<path d="M0 0 C2.18975773 3.28463659 2.99806563 6.20696275 4 10 C2.68 9.34 1.36 8.68 0 8 C-0.33 9.65 -0.66 11.3 -1 13 C-1.33 13 -1.66 13 -2 13 C-2.05447047 11.58376784 -2.09300508 10.16691809 -2.125 8.75 C-2.14820313 7.96109375 -2.17140625 7.1721875 -2.1953125 6.359375 C-1.9828378 3.79268059 -1.28654105 2.2083933 0 0 Z " fill="#313131" transform="translate(139,148)"/>
<path d="M0 0 C1.98 0.99 3.96 1.98 6 3 C5 5 4 7 3 9 C2.01 9 1.02 9 0 9 C0 6.03 0 3.06 0 0 Z " fill="#0C0C0C" transform="translate(138,155)"/>
<path d="M0 0 C2.90408342 3.87211123 3.85079464 6.40317854 5 11 C2.69 10.67 0.38 10.34 -2 10 C-1.34 6.7 -0.68 3.4 0 0 Z " fill="#D3D3D3" transform="translate(139,320)"/>
<path d="M0 0 C0.33 0 0.66 0 1 0 C1 6.93 1 13.86 1 21 C-0.65 20.67 -2.3 20.34 -4 20 C-3.01 19.34 -2.02 18.68 -1 18 C-0.49468134 16.07558585 -0.49468134 16.07558585 -0.48828125 13.8671875 C-0.45283203 13.06152344 -0.41738281 12.25585938 -0.38085938 11.42578125 C-0.35830078 10.58402344 -0.33574219 9.74226563 -0.3125 8.875 C-0.27833984 8.02550781 -0.24417969 7.17601562 -0.20898438 6.30078125 C-0.12640827 4.20098895 -0.06153022 2.10051436 0 0 Z " fill="#4F4F4F" transform="translate(201,337)"/>
<path d="M0 0 C0.66 0 1.32 0 2 0 C2 2.97 2 5.94 2 9 C2.99 8.67 3.98 8.34 5 8 C4.34 10.31 3.68 12.62 3 15 C0.87425322 11.4570887 0.52566777 8.05515137 0 4 C-0.33 3.34 -0.66 2.68 -1 2 C-0.67 1.34 -0.34 0.68 0 0 Z " fill="#4B4B4B" transform="translate(205,321)"/>
<path d="M0 0 C0.66 0 1.32 0 2 0 C2 2.97 2 5.94 2 9 C2.66 9.33 3.32 9.66 4 10 C2.02 10.33 0.04 10.66 -2 11 C-1.34 7.37 -0.68 3.74 0 0 Z " fill="#E1E1E1" transform="translate(231,283)"/>
<path d="M0 0 C0.66 0 1.32 0 2 0 C2.33 0.99 2.66 1.98 3 3 C2.01 3.33 1.02 3.66 0 4 C-0.33 4.66 -0.66 5.32 -1 6 C-1.99 5.67 -2.98 5.34 -4 5 C-4 4.34 -4 3.68 -4 3 C-5.65 2.67 -7.3 2.34 -9 2 C-9 1.67 -9 1.34 -9 1 C-6.03 1 -3.06 1 0 1 C0 0.67 0 0.34 0 0 Z " fill="#D7D7D7" transform="translate(247,254)"/>
<path d="M0 0 C0.66 0 1.32 0 2 0 C2 2.31 2 4.62 2 7 C2.66 7 3.32 7 4 7 C4.33 6.34 4.66 5.68 5 5 C5 6.32 5 7.64 5 9 C3.68 9.99 2.36 10.98 1 12 C0.67 8.04 0.34 4.08 0 0 Z " fill="#1F1F1F" transform="translate(113,264)"/>
<path d="M0 0 C3.65316671 1.24976756 4.78065836 1.67098753 7 5 C3.04 5 -0.92 5 -5 5 C-4.67 4.34 -4.34 3.68 -4 3 C-2.68 3 -1.36 3 0 3 C0 2.01 0 1.02 0 0 Z " fill="#373737" transform="translate(241,251)"/>
<path d="M0 0 C1.98 1.65 3.96 3.3 6 5 C5.01 5.66 4.02 6.32 3 7 C2.67 7.99 2.34 8.98 2 10 C1.34 9.67 0.68 9.34 0 9 C0 6.03 0 3.06 0 0 Z " fill="#CBCBCB" transform="translate(190,350)"/>
<path d="M0 0 C0.66 0 1.32 0 2 0 C2 1.65 2 3.3 2 5 C2.99 5.33 3.98 5.66 5 6 C2.525 7.485 2.525 7.485 0 9 C-0.66 7.35 -1.32 5.7 -2 4 C-1.34 4 -0.68 4 0 4 C0 2.68 0 1.36 0 0 Z " fill="#C2C2C2" transform="translate(158,343)"/>
<path d="M0 0 C0.66 0 1.32 0 2 0 C2 1.32 2 2.64 2 4 C2.99 4.66 3.98 5.32 5 6 C2.03 6 -0.94 6 -4 6 C-2.7260411 3.96166576 -1.38938077 1.96147874 0 0 Z " fill="#B8B8B8" transform="translate(171,339)"/>
<path d="M0 0 C0.66 0 1.32 0 2 0 C2 2.31 2 4.62 2 7 C1.34 6.34 0.68 5.68 0 5 C-1.65 6.32 -3.3 7.64 -5 9 C-4.42676569 5.13066838 -2.61046448 2.84777943 0 0 Z " fill="#CCCCCC" transform="translate(119,270)"/>
<path d="M0 0 C0.66 0 1.32 0 2 0 C2 2.31 2 4.62 2 7 C2.66 7.33 3.32 7.66 4 8 C2.0625 8.5625 2.0625 8.5625 0 9 C-1 8 -1 8 -1.125 5.0625 C-1 2 -1 2 0 0 Z " fill="#383838" transform="translate(182,126)"/>
<path d="M0 0 C0.6875 1.625 0.6875 1.625 1 4 C-0.4375 7.25 -0.4375 7.25 -2 10 C-4 7 -4 7 -3.8125 5 C-2.90059285 2.75530549 -1.81466246 1.57796735 0 0 Z " fill="#0D0D0D" transform="translate(221,48)"/>
<path d="M0 0 C2.79872437 2.52788007 4.45773019 4.20411134 5 8 C4.34 8 3.68 8 3 8 C2.34 7.01 1.68 6.02 1 5 C0.01 5 -0.98 5 -2 5 C-2.33 3.68 -2.66 2.36 -3 1 C-2.01 0.67 -1.02 0.34 0 0 Z " fill="#232323" transform="translate(195,224)"/>
<path d="M0 0 C0.66 0 1.32 0 2 0 C1.67 0.99 1.34 1.98 1 3 C3.97 3.33 6.94 3.66 10 4 C10 4.33 10 4.66 10 5 C5.38 5 0.76 5 -4 5 C-3.34 4.01 -2.68 3.02 -2 2 C-1.34 2 -0.68 2 0 2 C0 1.34 0 0.68 0 0 Z " fill="#B6B6B6" transform="translate(166,166)"/>
<path d="M0 0 C1.99954746 -0.04254356 4.00041636 -0.04080783 6 0 C7 1 7 1 7.0625 3.5625 C7.041875 4.366875 7.02125 5.17125 7 6 C5.83054208 5.19152271 4.66449539 4.37810888 3.5 3.5625 C2.8503125 3.11003906 2.200625 2.65757812 1.53125 2.19140625 C1.0259375 1.79824219 0.520625 1.40507812 0 1 C0 0.67 0 0.34 0 0 Z " fill="#1C1C1C" transform="translate(238,265)"/>
<path d="M0 0 C0.66 0.33 1.32 0.66 2 1 C-0.36620011 3.61527381 -2.942048 5.26440562 -6 7 C-6 6.34 -6 5.68 -6 5 C-6.66 4.67 -7.32 4.34 -8 4 C-6.71349294 3.30289269 -5.42059335 2.61757124 -4.125 1.9375 C-3.40570313 1.55464844 -2.68640625 1.17179688 -1.9453125 0.77734375 C-1.30335937 0.52082031 -0.66140625 0.26429688 0 0 Z " fill="#323232" transform="translate(104,199)"/>
<path d="M0 0 C2.475 0.99 2.475 0.99 5 2 C4.34 5.3 3.68 8.6 3 12 C2.25044562 9.0017825 1.58929011 6.03063487 1 3 C0.34 3 -0.32 3 -1 3 C-0.67 2.01 -0.34 1.02 0 0 Z " fill="#484848" transform="translate(212,58)"/>
<path d="M0 0 C0.33 0.99 0.66 1.98 1 3 C-0.47347113 5.38561992 -1.47735539 6.73867769 -4 8 C-4.33 8.66 -4.66 9.32 -5 10 C-5.66 9.34 -6.32 8.68 -7 8 C-4.69 5.36 -2.38 2.72 0 0 Z " fill="#303030" transform="translate(207,146)"/>
<path d="M0 0 C0.33 0.66 0.66 1.32 1 2 C0.0625 4.625 0.0625 4.625 -1 7 C-3 7 -5 7 -7 7 C-4.69 4.69 -2.38 2.38 0 0 Z " fill="#C0C0C0" transform="translate(181,152)"/>
<path d="M0 0 C0.66 0.33 1.32 0.66 2 1 C0.63016497 4.16115776 0.0109362 4.9927092 -3 7 C-2.625 4.0625 -2.625 4.0625 -2 1 C-1.34 0.67 -0.68 0.34 0 0 Z " fill="#171717" transform="translate(212,60)"/>
<path d="M0 0 C0.99 0.33 1.98 0.66 3 1 C3 1.66 3 2.32 3 3 C2.34 3 1.68 3 1 3 C0.67 3.66 0.34 4.32 0 5 C-0.99 5 -1.98 5 -3 5 C-2.625 3.0625 -2.625 3.0625 -2 1 C-1.34 0.67 -0.68 0.34 0 0 Z " fill="#DCDCDC" transform="translate(219,311)"/>
<path d="M0 0 C-1.15173355 2.46800047 -2.04783565 4.04783565 -4 6 C-4.66 4.68 -5.32 3.36 -6 2 C-3 0 -3 0 0 0 Z " fill="#383838" transform="translate(118,122)"/>
<path d="M0 0 C1 4 1 4 0 7 C0.66 7.33 1.32 7.66 2 8 C-0.475 9.485 -0.475 9.485 -3 11 C-2.01 7.37 -1.02 3.74 0 0 Z " fill="#454545" transform="translate(234,82)"/>
<path d="M0 0 C-1.39332574 3.36720387 -2.9789286 4.9859524 -6 7 C-5.37162381 3.35541809 -4.14650034 0 0 0 Z " fill="#353535" transform="translate(75,213)"/>
</svg>
